<svg width="501" height="98" viewBox="0 0 501 98" fill="none" xmlns="http://www.w3.org/2000/svg">
<path d="M81.1763 1.02059C75.9267 2.86063 73.0585 7.35247 73.0585 13.4679C73.0585 19.6374 75.3856 22.3433 82.8539 24.8869C85.0728 25.6446 87.3999 26.7811 88.1034 27.4305C89.8352 29.054 89.727 31.2729 87.887 32.7341C85.7763 34.4118 82.1504 33.9788 78.4703 31.7059C76.9009 30.7858 75.6562 30.0823 75.5479 30.1364C74.7903 31.2729 71.489 37.7671 71.489 38.2001C71.489 39.1742 78.4162 42.0425 82.2586 42.6378C85.3434 43.0708 86.6422 43.0166 89.6729 42.3131C96.8166 40.5272 100.388 35.8189 100.28 28.2964C100.172 22.5057 97.5742 19.5833 89.8894 16.8232C85.1269 15.0914 83.9363 14.1714 83.9363 12.169C83.9363 9.03015 88.0493 8.05601 92.2165 10.1666L94.8142 11.5196L96.8166 7.51483C99.0895 2.86063 99.1978 3.0771 93.7318 1.34531C89.8352 0.100578 84.0987 -0.0617782 81.1763 1.02059Z" fill="white"/>
<path d="M0.0522461 15.1435C0.0522461 23.0448 0.322839 30.0803 0.647551 31.6497C1.62169 36.2498 5.7347 40.6334 10.2807 41.9323C19.535 44.5841 28.7351 41.9323 32.0905 35.7086C34.2011 31.758 34.6882 27.8073 34.6882 13.8988V1.34326H29.601H24.5139L24.2974 14.9812C24.135 26.8332 24.0268 28.8897 23.1609 30.405C21.9162 32.7321 20.455 33.4356 16.9914 33.4356C11.0924 33.4356 10.3348 31.2168 10.3348 13.8447V1.34326H5.19352H0.0522461V15.1435Z" fill="white"/>
<path d="M40.1001 5.94666V10.5467H44.159H48.2179V26.2411V41.9355H53.3592H58.5004V26.2411V10.5467H62.8299H67.1594V5.94666V1.34658H53.6298H40.1001V5.94666Z" fill="white"/>
<path d="M106.397 53.7206C101.148 55.5606 98.2796 59.9442 98.2255 66.1679C98.1714 72.3374 100.39 74.881 108.075 77.641C110.294 78.3987 112.675 79.5352 113.379 80.1846C116.031 82.6741 113.866 86.5165 109.753 86.5165C107.696 86.5165 103.583 84.8929 102.014 83.4317C101.473 82.9447 100.931 82.6741 100.823 82.7823C100.174 83.5941 96.7102 90.2507 96.7102 90.7377C96.7102 91.1166 97.9549 91.9825 99.4161 92.7401C107.805 96.9614 116.572 96.4743 121.605 91.3872C124.419 88.6271 125.393 86.0294 125.393 81.4293C125.393 75.0433 122.687 72.0668 114.082 69.1444C110.456 67.8456 109.158 66.7632 109.158 64.869C109.158 61.676 113.325 60.7019 117.438 62.9208L119.981 64.3279L122.038 60.2148C124.311 55.5606 124.419 55.7771 118.953 54.0453C115.056 52.8006 109.32 52.6382 106.397 53.7206Z" fill="white"/>
<path d="M6.60248 55.2383C6.44013 55.9419 4.9248 65.0879 3.193 75.5328L0 94.6367H5.03304C9.36254 94.6367 10.0661 94.5285 10.3367 93.6626C10.4449 93.1755 11.2567 88.1966 12.0685 82.6224C12.8803 77.0481 13.692 72.6104 13.8544 72.7728C14.0167 72.9351 16.0191 77.8599 18.2921 83.7047L22.4593 94.3661H24.7864H27.1676L31.4971 83.1636L35.8266 71.961L36.4219 75.3163C36.7466 77.1564 37.6125 82.2435 38.2619 86.6272L39.4525 94.6367H44.5397C47.7327 94.6367 49.6269 94.4202 49.6269 94.0414C49.6269 93.7708 48.1656 84.733 46.3797 74.0716C44.5938 63.4102 43.1326 54.4807 43.1326 54.3183C43.1326 54.1559 40.7514 54.1018 37.8831 54.1559L32.5795 54.3183L28.8453 64.7091C26.7888 70.4457 25.0028 75.0458 24.8946 74.9375C24.7864 74.8293 23.0004 70.1751 20.9981 64.5467L17.2639 54.3183L12.0685 54.1559C7.08955 53.9936 6.87308 54.0477 6.60248 55.2383Z" fill="white"/>
<path d="M55.688 69.0386C55.8503 83.5424 55.9045 84.1918 57.1492 86.9519C58.7186 90.4154 62.2364 93.6626 65.4294 94.5826C73.2224 96.9638 82.585 95.0697 86.4815 90.3613C89.5663 86.6271 89.8369 84.8953 90.1075 68.768L90.324 54.0477H85.1827H80.0414L79.8249 67.415C79.6626 79.1046 79.5002 81.107 78.6343 82.8929C78.0931 84.0294 77.119 85.2201 76.5237 85.4906C74.846 86.4107 70.4083 86.2483 68.7847 85.1659C66.1329 83.4341 65.8623 81.7565 65.8623 67.3068V54.0477H60.6669H55.5256L55.688 69.0386Z" fill="white"/>
<path d="M132.969 74.3422V94.6367L144.226 94.5285L155.428 94.3661L155.591 89.8743L155.753 85.4366H149.475H143.252V69.7422V54.0477H138.111H132.969V74.3422Z" fill="white"/>
<path d="M161.652 74.3422V94.6367H166.523H171.393V74.3422V54.0477H166.523H161.652V74.3422Z" fill="white"/>
<path d="M184.707 55.5089C184.058 58.7019 178.429 93.0132 178.429 93.8249C178.429 94.5285 179.133 94.6367 183.462 94.5285L188.441 94.3661L190.065 83.6506C190.931 77.8058 191.797 72.9893 192.013 72.9893C192.175 72.9893 192.879 74.3963 193.528 76.074C194.178 77.8058 196.072 82.6765 197.75 86.8977L200.78 94.6367H202.999H205.218L209.493 83.4883C211.929 77.2646 213.985 72.7187 214.148 73.0975C214.364 73.4763 215.23 78.5094 216.042 84.1918L217.557 94.6367H222.644C226.811 94.6367 227.677 94.4744 227.677 93.7708C227.677 93.0132 222.049 58.6478 221.399 55.5089L221.075 53.9936L215.933 54.156L210.738 54.3183L207.058 64.5467C205.001 70.1751 203.27 74.8834 203.161 74.9916C203.053 75.0999 201.267 70.4998 199.211 64.7632L195.477 54.3183L190.227 54.156L185.032 53.9936L184.707 55.5089Z" fill="white"/>
<path d="M261.471 54.8733C258.765 55.7933 255.139 59.6899 254.273 62.5582C253.407 65.4806 253.461 69.9183 254.381 72.0831C255.68 75.1678 258.386 76.8996 266.233 79.7679C268.236 80.4715 269.047 81.1209 269.589 82.3656C271.699 87.3987 264.772 89.2928 258.819 85.3421C257.412 84.4221 256.221 83.7727 256.113 83.8809C255.734 84.2598 252 91.8905 252 92.2152C252 92.8646 258.819 95.6247 262.012 96.2741C272.619 98.4389 280.953 92.3776 280.953 82.4739C280.899 76.3043 278.139 73.1113 270.4 70.5677C265.8 69.0524 264.447 67.97 264.447 65.8053C264.447 64.777 264.88 64.1276 266.071 63.5323C268.236 62.3958 269.805 62.5041 272.782 64.0194L275.325 65.3182L277.328 61.3135C279.601 56.6592 279.709 56.8757 274.243 55.1439C270.238 53.8992 264.61 53.7368 261.471 54.8733Z" fill="white"/>
<path d="M302.06 54.819C295.998 56.7132 291.236 60.8803 288.584 66.5086C287.069 69.7016 286.906 70.5134 286.906 75.4382C286.906 80.2547 287.069 81.2289 288.476 84.2054C294.591 97.5186 312.938 100.712 323.599 90.429C327.387 86.749 329.498 82.0948 329.823 76.7912C330.147 71.3252 329.281 67.8075 326.576 63.7486C321.488 56.172 310.502 52.1672 302.06 54.819ZM312.883 65.3721C316.888 67.1581 319.648 71.4875 319.648 75.9794C319.648 78.7394 317.484 82.3112 314.724 84.1513C308.662 88.1561 301.627 86.4243 298.434 80.0924C296.702 76.6829 296.54 74.1393 297.947 71.1087C300.599 65.4263 307.309 62.8286 312.883 65.3721Z" fill="white"/>
<path d="M350.063 55.6837C346.167 57.0907 344.056 58.4978 341.188 61.4744C333.178 70.1333 333.611 83.2842 342.216 91.4561C351.741 100.44 366.948 98.9245 374.417 88.2631C375.499 86.6937 376.636 84.583 376.96 83.663L377.501 81.9312L376.581 83.2842C370.574 92.2138 358.181 93.8373 350.604 86.6937C346.437 82.6889 345.355 80.1994 345.355 74.3546C345.355 70.2957 345.571 69.051 346.654 66.8321C350.604 58.8225 359.588 55.1966 368.085 58.1731C369.059 58.4978 369.005 58.3896 367.977 57.6319C364.026 54.6554 355.421 53.7354 350.063 55.6837Z" fill="#FEDAA3"/>
<path d="M384.591 75.4374V95.7319H389.732H394.874V75.4374V55.143H389.732H384.591V75.4374Z" fill="white"/>
<path d="M403.532 75.4374V95.7319H414.897H426.262V91.1319V86.5318H420.039H413.815V75.4374V64.3431H420.039H426.262V59.743V55.143H414.897H403.532V75.4374Z" fill="white"/>
<path d="M431.782 59.5807L431.945 64.0725L436.166 64.2349L440.333 64.3972V80.0375V95.7319H445.474H450.616V80.0375V64.3431H454.674H458.733V59.743V55.143H445.204H431.62L431.782 59.5807Z" fill="white"/>
<path d="M463.225 57.6865C464.199 59.1477 467.501 63.8561 470.531 68.2397L476.051 76.1951V85.9365V95.7319H481.193H486.334V86.0988V76.4657L488.932 72.6774C490.339 70.6209 493.64 65.8585 496.238 62.016L501 55.143H494.614L488.228 55.1971L484.764 60.2842C482.816 63.0984 481.247 65.4255 481.193 65.4255C481.138 65.4255 479.515 63.0984 477.621 60.2842L474.157 55.1971L467.771 55.143H461.331L463.225 57.6865Z" fill="white"/>
<path d="M364.405 63.5328C364.242 64.1281 363.809 65.914 363.485 67.4294L362.835 70.2977L360.346 70.3518C358.939 70.3518 357.315 70.5683 356.774 70.7847C355.8 71.1636 356.07 71.4883 358.506 73.3283C360.67 74.8977 361.32 75.7095 361.103 76.5213C360.995 77.1166 360.67 78.7943 360.454 80.2555L360.075 82.9614L362.348 81.0673C366.19 77.9825 365.92 78.0366 369.221 79.6602C370.899 80.472 372.36 81.0673 372.468 80.959C372.631 80.8508 372.198 79.3355 371.548 77.6578L370.358 74.573L373.009 71.8671L375.661 69.1612L371.873 69.2694L368.085 69.4318L366.407 65.914C365.108 63.2081 364.675 62.6669 364.405 63.5328Z" fill="#FEDAA3"/>
<path d="M418.253 71.1059C416.196 72.8377 415.655 75.0024 416.737 77.4919C417.657 79.7649 418.956 80.5767 421.608 80.5767C424.26 80.5767 426.262 78.7366 426.641 75.8683C426.912 73.7577 426.749 73.3789 425.018 71.6471C422.69 69.32 420.58 69.1576 418.253 71.1059Z" fill="#FEDAA3"/>
</svg>
